HIERARCHY
ROOT mixamorig:Hips
{
	OFFSET 0.000000 1.042749 0.000000
	CHANNELS 6 Xposition Yposition Zposition Xrotation Yrotation Zrotation
	JOINT mixamorig:Spine
	{
		OFFSET 0.000000 0.101815 0.001315
		CHANNELS 6 Xposition Yposition Zposition Xrotation Yrotation Zrotation
		JOINT mixamorig:Spine1
		{
			OFFSET 0.000000 0.098940 -0.014707
			CHANNELS 3 Xrotation Yrotation Zrotation
			JOINT mixamorig:Spine2
			{
				OFFSET 0.000000 0.092208 -0.013706
				CHANNELS 3 Xrotation Yrotation Zrotation
				JOINT mixamorig:Neck
				{
					OFFSET 0.000000 0.167404 -0.020490
					CHANNELS 6 Xposition Yposition Zposition Xrotation Yrotation Zrotation
					JOINT mixamorig:Head
					{
						OFFSET 0.000000 0.096179 0.016850
						CHANNELS 6 Xposition Yposition Zposition Xrotation Yrotation Zrotation
						JOINT mixamorig:HeadTop_End
						{
							OFFSET 0.000000 0.220374 0.075011
							CHANNELS 6 Xposition Yposition Zposition Xrotation Yrotation Zrotation
							End Site
							{
								OFFSET 0.000000 0.231066 -0.028282
							}
						}
					}
				}
				JOINT mixamorig:RightShoulder
				{
					OFFSET -0.045700 0.110149 -0.021608
					CHANNELS 6 Xposition Yposition Zposition Xrotation Yrotation Zrotation
					JOINT mixamorig:RightArm
					{
						OFFSET -0.105929 -0.005248 -0.022321
						CHANNELS 3 Xrotation Yrotation Zrotation
						JOINT mixamorig:RightForeArm
						{
							OFFSET -0.278415 0.000000 -0.000000
							CHANNELS 3 Xrotation Yrotation Zrotation
							JOINT mixamorig:RightHand
							{
								OFFSET -0.283288 0.000000 -0.000000
								CHANNELS 3 Xrotation Yrotation Zrotation
								JOINT mixamorig:RightHandThumb1
								{
									OFFSET -0.024648 -0.015740 0.026819
									CHANNELS 6 Xposition Yposition Zposition Xrotation Yrotation Zrotation
									JOINT mixamorig:RightHandThumb2
									{
										OFFSET -0.032448 -0.018734 0.018734
										CHANNELS 3 Xrotation Yrotation Zrotation
										JOINT mixamorig:RightHandThumb3
										{
											OFFSET -0.026463 -0.015278 0.015278
											CHANNELS 6 Xposition Yposition Zposition Xrotation Yrotation Zrotation
											JOINT mixamorig:RightHandThumb4
											{
												OFFSET -0.019946 -0.011516 0.011516
												CHANNELS 6 Xposition Yposition Zposition Xrotation Yrotation Zrotation
												End Site
												{
													OFFSET -0.018602 -0.011427 0.013655
												}
											}
										}
									}
								}
								JOINT mixamorig:RightHandIndex1
								{
									OFFSET -0.091083 -0.005179 0.022598
									CHANNELS 6 Xposition Yposition Zposition Xrotation Yrotation Zrotation
									JOINT mixamorig:RightHandIndex2
									{
										OFFSET -0.037000 0.000000 0.000000
										CHANNELS 3 Xrotation Yrotation Zrotation
										JOINT mixamorig:RightHandIndex3
										{
											OFFSET -0.028500 0.000000 0.000000
											CHANNELS 3 Xrotation Yrotation Zrotation
											JOINT mixamorig:RightHandIndex4
											{
												OFFSET -0.027722 0.000000 0.000000
												CHANNELS 3 Xrotation Yrotation Zrotation
												End Site
												{
													OFFSET -0.027722 0.000000 -0.000005
												}
											}
										}
									}
								}
								JOINT mixamorig:RightHandMiddle1
								{
									OFFSET -0.095325 0.000000 -0.000000
									CHANNELS 6 Xposition Yposition Zposition Xrotation Yrotation Zrotation
									JOINT mixamorig:RightHandMiddle2
									{
										OFFSET -0.037000 0.000000 0.000000
										CHANNELS 3 Xrotation Yrotation Zrotation
										JOINT mixamorig:RightHandMiddle3
										{
											OFFSET -0.029500 0.000000 0.000000
											CHANNELS 3 Xrotation Yrotation Zrotation
											JOINT mixamorig:RightHandMiddle4
											{
												OFFSET -0.029466 0.000000 0.000000
												CHANNELS 3 Xrotation Yrotation Zrotation
												End Site
												{
													OFFSET -0.029466 0.000000 -0.000010
												}
											}
										}
									}
								}
								JOINT mixamorig:RightHandRing1
								{
									OFFSET -0.091036 -0.000431 -0.018651
									CHANNELS 6 Xposition Yposition Zposition Xrotation Yrotation Zrotation
									JOINT mixamorig:RightHandRing2
									{
										OFFSET -0.033793 0.000000 0.000000
										CHANNELS 3 Xrotation Yrotation Zrotation
										JOINT mixamorig:RightHandRing3
										{
											OFFSET -0.028897 0.000000 0.000000
											CHANNELS 3 Xrotation Yrotation Zrotation
											JOINT mixamorig:RightHandRing4
											{
												OFFSET -0.026388 0.000000 0.000000
												CHANNELS 3 Xrotation Yrotation Zrotation
												End Site
												{
													OFFSET -0.026388 0.000000 0.000042
												}
											}
										}
									}
								}
								JOINT mixamorig:RightHandPinky1
								{
									OFFSET -0.080767 -0.004867 -0.038063
									CHANNELS 6 Xposition Yposition Zposition Xrotation Yrotation Zrotation
									JOINT mixamorig:RightHandPinky2
									{
										OFFSET -0.036000 0.000000 0.000000
										CHANNELS 3 Xrotation Yrotation Zrotation
										JOINT mixamorig:RightHandPinky3
										{
											OFFSET -0.021000 0.000000 0.000000
											CHANNELS 3 Xrotation Yrotation Zrotation
											JOINT mixamorig:RightHandPinky4
											{
												OFFSET -0.021158 0.000000 0.000000
												CHANNELS 3 Xrotation Yrotation Zrotation
												End Site
												{
													OFFSET -0.021158 0.000000 0.000002
												}
											}
										}
									}
								}
							}
						}
					}
				}
				JOINT mixamorig:LeftShoulder
				{
					OFFSET 0.045704 0.110147 -0.021608
					CHANNELS 6 Xposition Yposition Zposition Xrotation Yrotation Zrotation
					JOINT mixamorig:LeftArm
					{
						OFFSET 0.105924 -0.005246 -0.022321
						CHANNELS 3 Xrotation Yrotation Zrotation
						JOINT mixamorig:LeftForeArm
						{
							OFFSET 0.278415 0.000000 0.000000
							CHANNELS 3 Xrotation Yrotation Zrotation
							JOINT mixamorig:LeftHand
							{
								OFFSET 0.283288 0.000000 -0.000000
								CHANNELS 3 Xrotation Yrotation Zrotation
								JOINT mixamorig:LeftHandThumb1
								{
									OFFSET 0.024661 -0.015762 0.026817
									CHANNELS 6 Xposition Yposition Zposition Xrotation Yrotation Zrotation
									JOINT mixamorig:LeftHandThumb2
									{
										OFFSET 0.032433 -0.018725 0.018725
										CHANNELS 3 Xrotation Yrotation Zrotation
										JOINT mixamorig:LeftHandThumb3
										{
											OFFSET 0.026479 -0.015288 0.015288
											CHANNELS 6 Xposition Yposition Zposition Xrotation Yrotation Zrotation
											JOINT mixamorig:LeftHandThumb4
											{
												OFFSET 0.019989 -0.011541 0.011541
												CHANNELS 6 Xposition Yposition Zposition Xrotation Yrotation Zrotation
												End Site
												{
													OFFSET 0.018840 -0.011492 0.013377
												}
											}
										}
									}
								}
								JOINT mixamorig:LeftHandIndex1
								{
									OFFSET 0.091093 -0.005180 0.022599
									CHANNELS 6 Xposition Yposition Zposition Xrotation Yrotation Zrotation
									JOINT mixamorig:LeftHandIndex2
									{
										OFFSET 0.037000 0.000000 0.000000
										CHANNELS 3 Xrotation Yrotation Zrotation
										JOINT mixamorig:LeftHandIndex3
										{
											OFFSET 0.028500 0.000000 0.000000
											CHANNELS 3 Xrotation Yrotation Zrotation
											JOINT mixamorig:LeftHandIndex4
											{
												OFFSET 0.027749 0.000000 0.000000
												CHANNELS 3 Xrotation Yrotation Zrotation
												End Site
												{
													OFFSET 0.027749 0.000000 -0.000001
												}
											}
										}
									}
								}
								JOINT mixamorig:LeftHandMiddle1
								{
									OFFSET 0.095334 0.000000 0.000000
									CHANNELS 6 Xposition Yposition Zposition Xrotation Yrotation Zrotation
									JOINT mixamorig:LeftHandMiddle2
									{
										OFFSET 0.037000 0.000000 0.000000
										CHANNELS 3 Xrotation Yrotation Zrotation
										JOINT mixamorig:LeftHandMiddle3
										{
											OFFSET 0.029500 0.000000 0.000000
											CHANNELS 3 Xrotation Yrotation Zrotation
											JOINT mixamorig:LeftHandMiddle4
											{
												OFFSET 0.029529 0.000000 0.000000
												CHANNELS 3 Xrotation Yrotation Zrotation
												End Site
												{
													OFFSET 0.029529 0.000000 0.000002
												}
											}
										}
									}
								}
								JOINT mixamorig:LeftHandRing1
								{
									OFFSET 0.091045 -0.000430 -0.018651
									CHANNELS 6 Xposition Yposition Zposition Xrotation Yrotation Zrotation
									JOINT mixamorig:LeftHandRing2
									{
										OFFSET 0.031500 0.000000 0.000000
										CHANNELS 3 Xrotation Yrotation Zrotation
										JOINT mixamorig:LeftHandRing3
										{
											OFFSET 0.029500 0.000000 0.000000
											CHANNELS 3 Xrotation Yrotation Zrotation
											JOINT mixamorig:LeftHandRing4
											{
												OFFSET 0.026443 0.000000 0.000000
												CHANNELS 3 Xrotation Yrotation Zrotation
												End Site
												{
													OFFSET 0.026443 0.000000 0.000001
												}
											}
										}
									}
								}
								JOINT mixamorig:LeftHandPinky1
								{
									OFFSET 0.080778 -0.004869 -0.038063
									CHANNELS 6 Xposition Yposition Zposition Xrotation Yrotation Zrotation
									JOINT mixamorig:LeftHandPinky2
									{
										OFFSET 0.036000 0.000000 0.000000
										CHANNELS 3 Xrotation Yrotation Zrotation
										JOINT mixamorig:LeftHandPinky3
										{
											OFFSET 0.021000 0.000000 0.000000
											CHANNELS 3 Xrotation Yrotation Zrotation
											JOINT mixamorig:LeftHandPinky4
											{
												OFFSET 0.021255 0.000000 0.000000
												CHANNELS 3 Xrotation Yrotation Zrotation
												End Site
												{
													OFFSET 0.021255 0.000000 -0.000013
												}
											}
										}
									}
								}
							}
						}
					}
				}
			}
		}
	}
	JOINT mixamorig:RightUpLeg
	{
		OFFSET -0.082078 -0.067517 -0.015995
		CHANNELS 6 Xposition Yposition Zposition Xrotation Yrotation Zrotation
		JOINT mixamorig:RightLeg
		{
			OFFSET 0.000000 -0.443702 0.003459
			CHANNELS 3 Xrotation Yrotation Zrotation
			JOINT mixamorig:RightFoot
			{
				OFFSET 0.000000 -0.444237 -0.030435
				CHANNELS 3 Xrotation Yrotation Zrotation
				JOINT mixamorig:RightToeBase
				{
					OFFSET 0.000000 -0.087287 0.107106
					CHANNELS 3 Xrotation Yrotation Zrotation
					JOINT mixamorig:RightToe_End
					{
						OFFSET 0.000000 -0.000007 0.092781
						CHANNELS 3 Xrotation Yrotation Zrotation
						End Site
						{
							OFFSET 0.000000 -0.000007 0.092781
						}
					}
				}
			}
		}
	}
	JOINT mixamorig:LeftUpLeg
	{
		OFFSET 0.082078 -0.067517 -0.015995
		CHANNELS 6 Xposition Yposition Zposition Xrotation Yrotation Zrotation
		JOINT mixamorig:LeftLeg
		{
			OFFSET 0.000000 -0.443700 0.003469
			CHANNELS 3 Xrotation Yrotation Zrotation
			JOINT mixamorig:LeftFoot
			{
				OFFSET 0.000000 -0.444236 -0.030444
				CHANNELS 3 Xrotation Yrotation Zrotation
				JOINT mixamorig:LeftToeBase
				{
					OFFSET 0.000000 -0.087287 0.107106
					CHANNELS 3 Xrotation Yrotation Zrotation
					JOINT mixamorig:LeftToe_End
					{
						OFFSET 0.000000 -0.000007 0.092781
						CHANNELS 3 Xrotation Yrotation Zrotation
						End Site
						{
							OFFSET 0.000000 -0.000007 0.092781
						}
					}
				}
			}
		}
	}
}
MOTION
Frames: 4
Frame Time: 0.016667
-0.002193 0.989889 0.003886 5.021233 -3.709366 8.535847 -0.000000 0.101816 0.001315 6.015290 -1.813555 2.180436 12.141533 -3.100137 5.546403 12.141522 -3.100138 5.546400 0.000000 0.167404 -0.020490 9.725694 -9.957291 6.975682 -0.000000 0.096179 0.016850 12.412799 -8.701621 -4.539871 0.000000 0.220374 0.075011 0.000000 -0.000002 0.000001 -0.045700 0.110149 -0.021608 -30.181650 22.157016 -11.514523 -59.220097 -7.868976 46.263323 6.495308 123.990336 -5.392232 -26.654168 1.997383 -5.326878 -0.024648 -0.015740 0.026819 -28.609567 -10.644834 0.170604 0.941268 -1.290261 0.235499 -0.026463 -0.015278 0.015278 -0.000011 0.000006 -0.000006 -0.019946 -0.011516 0.011516 -0.000000 -0.000003 -0.000000 -0.091083 -0.005179 0.022598 -3.993860 -6.999526 18.566611 0.402642 -1.732414 30.432123 -0.000002 0.000002 -0.000003 -0.000001 0.000001 -0.000000 -0.095325 0.000000 -0.000000 1.179053 -4.694148 25.563349 -0.268811 1.048407 19.743925 -0.000000 0.000000 0.000006 0.000000 0.000000 0.000006 -0.091036 -0.000431 -0.018651 -0.500099 -6.227273 31.110883 1.398945 0.254767 14.962545 -0.000007 0.000004 0.000016 0.000001 0.000001 0.000008 -0.080767 -0.004867 -0.038063 2.384807 -6.017409 33.822301 -0.305304 1.288873 11.805870 -0.000002 0.000003 0.000016 0.000000 -0.000001 0.000007 0.045704 0.110147 -0.021608 -31.343571 -18.805667 8.317904 -49.879280 -0.374707 -75.978136 -0.181368 -125.457871 -0.148129 -10.229940 -3.269418 20.083638 0.024661 -0.015762 0.026817 -48.512371 13.157086 -3.971852 5.849540 14.755444 1.800831 0.026479 -0.015288 0.015287 -0.000005 0.000018 -0.000015 0.019989 -0.011541 0.011541 0.000002 -0.000003 0.000003 0.091093 -0.005180 0.022599 -8.053855 8.573585 -26.955548 0.740322 1.852074 -22.932451 -0.000002 -0.000002 -0.000000 -0.000001 0.000000 -0.000001 0.095334 0.000000 -0.000000 -0.697603 0.625148 -32.061758 -0.334590 -1.124268 -27.158301 0.000001 -0.000001 0.000002 0.000002 -0.000003 0.000001 0.091045 -0.000430 -0.018651 -1.376001 1.579528 -35.064173 -0.336765 -0.826067 -21.997114 -0.000001 0.000001 -0.000000 -0.000000 0.000000 0.000000 0.080778 -0.004869 -0.038063 3.025536 -1.499680 -40.467378 -0.114744 -1.334800 -8.145119 -0.000008 -0.000012 -0.000013 -0.000001 -0.000002 0.000000 -0.082078 -0.067517 -0.015995 -32.259171 4.518280 -11.426542 35.697717 0.269824 1.405441 -7.788512 -6.850154 2.622993 -0.656439 2.946459 -0.470077 0.000000 0.000000 0.000000 0.082078 -0.067517 -0.015995 -16.210996 26.695111 3.367482 29.266121 -0.325976 -1.039455 -17.318797 -8.156082 -3.026594 -0.863769 5.269184 -2.976977 0.000000 0.000002 0.000000 
-0.002114 0.989844 0.004049 4.952622 -3.914659 8.564699 0.000000 0.101815 0.001315 5.937975 -1.811841 2.176549 11.986881 -3.103686 5.538971 11.986889 -3.103687 5.538975 0.000000 0.167404 -0.020490 9.683464 -9.966992 6.976114 -0.000000 0.096179 0.016850 12.444485 -8.688743 -4.550475 0.000000 0.220374 0.075011 -0.000001 0.000001 -0.000002 -0.045700 0.110149 -0.021608 -30.371771 21.994611 -11.017712 -59.253981 -7.211650 46.187682 6.522826 123.800607 -5.427216 -26.650076 1.968286 -5.385184 -0.024648 -0.015740 0.026819 -28.609564 -10.644846 0.170616 0.941262 -1.290259 0.235487 -0.026463 -0.015278 0.015278 -0.000008 0.000008 -0.000006 -0.019946 -0.011516 0.011516 0.000001 -0.000002 0.000005 -0.091083 -0.005179 0.022598 -3.993866 -6.999539 18.566599 0.402643 -1.732414 30.432137 -0.000002 0.000002 -0.000006 0.000001 0.000001 -0.000003 -0.095325 -0.000000 -0.000000 1.179064 -4.694155 25.563323 -0.268827 1.048407 19.743956 -0.000000 -0.000001 0.000002 -0.000001 -0.000001 0.000004 -0.091036 -0.000431 -0.018651 -0.500090 -6.227282 31.110883 1.398929 0.254769 14.962569 -0.000007 0.000006 0.000014 -0.000001 0.000000 0.000007 -0.080767 -0.004867 -0.038063 2.384808 -6.017434 33.822328 -0.305294 1.288883 11.805846 -0.000001 0.000003 0.000017 -0.000001 -0.000001 0.000001 0.045704 0.110147 -0.021608 -31.039583 -18.745328 8.107588 -50.308776 -0.662988 -75.825550 -0.189493 -125.443227 -0.154738 -10.197674 -3.146064 20.086605 0.024661 -0.015762 0.026817 -48.512351 13.157078 -3.971853 5.849527 14.755466 1.800837 0.026479 -0.015287 0.015288 -0.000004 0.000008 -0.000013 0.019989 -0.011541 0.011541 -0.000000 0.000004 0.000003 0.091093 -0.005180 0.022599 -8.053837 8.573600 -26.955545 0.740319 1.852056 -22.932456 -0.000003 -0.000002 -0.000000 -0.000004 -0.000004 -0.000002 0.095334 -0.000000 0.000000 -0.697586 0.625159 -32.061755 -0.334592 -1.124271 -27.158311 0.000000 0.000001 -0.000001 0.000001 0.000003 -0.000001 0.091045 -0.000430 -0.018651 -1.375990 1.579534 -35.064169 -0.336767 -0.826067 -21.997119 0.000001 -0.000000 -0.000001 0.000000 0.000001 -0.000001 0.080778 -0.004869 -0.038063 3.025541 -1.499676 -40.467402 -0.114745 -1.334801 -8.145113 -0.000008 -0.000013 -0.000012 -0.000001 -0.000004 0.000000 -0.082078 -0.067517 -0.015995 -32.217995 4.517743 -11.429285 35.727220 0.271461 1.406525 -7.800762 -6.650505 2.605664 -0.594627 2.741362 -0.426383 -0.000000 -0.000000 -0.000000 0.082078 -0.067517 -0.015995 -16.071374 26.683182 3.312831 29.270202 -0.329034 -1.039730 -17.359554 -7.938269 -3.014806 -0.858034 5.047203 -2.858587 0.000000 -0.000001 -0.000000 
-0.002077 0.989771 0.004220 4.890307 -4.128367 8.594790 -0.000000 0.101816 0.001315 5.857656 -1.808013 2.170114 11.826006 -3.103355 5.526200 11.826000 -3.103357 5.526199 -0.000000 0.167404 -0.020490 9.629390 -9.975288 6.959884 0.000000 0.096178 0.016850 12.486974 -8.672208 -4.549042 -0.000000 0.220374 0.075011 -0.000003 -0.000001 0.000000 -0.045700 0.110149 -0.021608 -30.564704 21.829428 -10.513175 -59.281876 -6.540596 46.109320 6.548789 123.607108 -5.461180 -26.648251 1.947520 -5.448444 -0.024648 -0.015740 0.026819 -28.609559 -10.644834 0.170622 0.941246 -1.290255 0.235499 -0.026463 -0.015278 0.015278 -0.000007 0.000008 -0.000004 -0.019946 -0.011516 0.011516 0.000002 -0.000004 0.000005 -0.091083 -0.005179 0.022598 -3.993856 -6.999523 18.566611 0.402636 -1.732413 30.432143 -0.000004 0.000002 -0.000003 -0.000001 0.000001 -0.000001 -0.095325 0.000000 -0.000000 1.179059 -4.694143 25.563347 -0.268818 1.048412 19.743954 -0.000001 0.000000 -0.000001 -0.000001 0.000000 0.000001 -0.091036 -0.000431 -0.018651 -0.500077 -6.227275 31.110914 1.398924 0.254779 14.962542 -0.000007 0.000004 0.000013 0.000000 -0.000000 0.000005 -0.080767 -0.004867 -0.038063 2.384810 -6.017410 33.822339 -0.305303 1.288872 11.805856 -0.000001 0.000002 0.000014 -0.000001 -0.000001 0.000001 0.045704 0.110147 -0.021608 -30.729591 -18.687544 7.887846 -50.743422 -0.960390 -75.657514 -0.200939 -125.431547 -0.164143 -10.167900 -3.020772 20.094878 0.024661 -0.015762 0.026817 -48.512361 13.157071 -3.971851 5.849543 14.755459 1.800811 0.026479 -0.015287 0.015288 -0.000007 0.000011 -0.000014 0.019989 -0.011541 0.011541 0.000003 -0.000003 0.000003 0.091093 -0.005180 0.022599 -8.053849 8.573590 -26.955536 0.740328 1.852089 -22.932451 0.000001 0.000003 0.000000 0.000002 0.000001 -0.000002 0.095334 0.000000 -0.000000 -0.697600 0.625159 -32.061741 -0.334588 -1.124265 -27.158316 -0.000000 0.000003 -0.000000 0.000000 0.000001 -0.000002 0.091045 -0.000430 -0.018651 -1.376006 1.579529 -35.064156 -0.336768 -0.826060 -21.997121 -0.000001 0.000002 -0.000000 0.000002 0.000002 -0.000000 0.080778 -0.004869 -0.038063 3.025539 -1.499672 -40.467365 -0.114745 -1.334795 -8.145138 -0.000011 -0.000012 -0.000015 -0.000001 -0.000001 -0.000000 -0.082078 -0.067517 -0.015995 -32.187680 4.525945 -11.425652 35.766409 0.273581 1.407963 -7.817389 -6.450945 2.585698 -0.532115 2.531254 -0.381846 0.000000 0.000000 0.000000 0.082078 -0.067517 -0.015995 -15.942041 26.674011 3.262993 29.283511 -0.331852 -1.040276 -17.405762 -7.715204 -3.004981 -0.852009 4.821489 -2.737411 -0.000000 0.000000 0.000000 
-0.002152 0.989622 0.004408 4.846845 -4.364259 8.628190 -0.000000 0.101816 0.001315 5.769022 -1.798408 2.156785 11.647932 -3.092453 5.498885 11.647938 -3.092452 5.498890 -0.000000 0.167404 -0.020490 9.544856 -9.978211 6.905769 -0.000000 0.096178 0.016850 12.558222 -8.642514 -4.519614 0.000000 0.220374 0.075011 0.000005 -0.000001 0.000000 -0.045700 0.110149 -0.021608 -30.765382 21.660143 -9.983710 -59.291329 -5.832780 46.018205 6.569767 123.405140 -5.491633 -26.655411 1.952504 -5.532438 -0.024648 -0.015740 0.026819 -28.609566 -10.644841 0.170614 0.941266 -1.290257 0.235512 -0.026463 -0.015278 0.015278 -0.000006 0.000006 -0.000007 -0.019946 -0.011516 0.011516 0.000002 -0.000003 -0.000000 -0.091083 -0.005179 0.022598 -3.993877 -6.999532 18.566602 0.402661 -1.732418 30.432130 -0.000003 0.000001 -0.000002 -0.000000 -0.000000 0.000005 -0.095325 0.000000 -0.000000 1.179045 -4.694144 25.563354 -0.268814 1.048403 19.743932 0.000000 0.000000 0.000003 0.000001 0.000000 0.000006 -0.091036 -0.000431 -0.018651 -0.500104 -6.227279 31.110900 1.398939 0.254775 14.962544 -0.000008 0.000005 0.000012 -0.000000 0.000001 0.000004 -0.080767 -0.004867 -0.038063 2.384800 -6.017418 33.822335 -0.305297 1.288869 11.805850 -0.000001 0.000003 0.000018 -0.000001 0.000000 0.000006 0.045704 0.110147 -0.021608 -30.403522 -18.633292 7.648558 -51.192859 -1.279677 -75.453537 -0.221124 -125.427121 -0.180552 -10.143087 -2.887401 20.111600 0.024661 -0.015762 0.026817 -48.512351 13.157075 -3.971859 5.849524 14.755464 1.800825 0.026479 -0.015287 0.015288 -0.000007 0.000013 -0.000016 0.019989 -0.011541 0.011541 0.000000 -0.000001 0.000003 0.091093 -0.005180 0.022599 -8.053868 8.573581 -26.955545 0.740320 1.852081 -22.932452 0.000001 0.000001 -0.000001 0.000002 0.000001 -0.000002 0.095334 -0.000000 -0.000000 -0.697627 0.625146 -32.061772 -0.334581 -1.124255 -27.158313 0.000001 0.000001 0.000001 0.000002 0.000003 -0.000001 0.091045 -0.000430 -0.018651 -1.376012 1.579533 -35.064156 -0.336762 -0.826072 -21.997116 -0.000000 0.000002 -0.000002 0.000001 0.000002 -0.000001 0.080778 -0.004869 -0.038063 3.025525 -1.499680 -40.467409 -0.114745 -1.334792 -8.145105 -0.000011 -0.000011 -0.000014 -0.000001 0.000003 -0.000001 -0.082078 -0.067517 -0.015995 -32.188988 4.559004 -11.403354 35.832412 0.276945 1.410384 -7.845912 -6.253380 2.558876 -0.468285 2.308138 -0.336425 -0.000000 -0.000000 -0.000000 0.082078 -0.067517 -0.015995 -15.844476 26.675135 3.229023 29.323136 -0.334217 -1.041642 -17.465624 -7.480942 -3.002096 -0.846717 4.584250 -2.608249 -0.000000 -0.000001 -0.000000 
